<mxfile host="app.diagrams.net" agent="Mozilla/5.0 (Macintosh; Intel Mac OS X 10_15_7) AppleWebKit/537.36 (KHTML, like Gecko) Chrome/139.0.0.0 Safari/537.36" version="28.0.9">
  <diagram name="Page-1" id="x7I0w-ZZJ4LnccFRB52F">
    <mxGraphModel dx="2284" dy="611" grid="1" gridSize="10" guides="1" tooltips="1" connect="1" arrows="1" fold="1" page="1" pageScale="1" pageWidth="850" pageHeight="1100" math="0" shadow="0">
      <root>
        <mxCell id="0" />
        <mxCell id="1" parent="0" />
        <mxCell id="hhvihaq0zmXsQetp40y2-1" value="AWS Cloud" style="sketch=0;outlineConnect=0;gradientColor=none;html=1;whiteSpace=wrap;fontSize=12;fontStyle=0;shape=mxgraph.aws4.group;grIcon=mxgraph.aws4.group_aws_cloud;strokeColor=#858B94;fillColor=none;verticalAlign=top;align=left;spacingLeft=30;fontColor=#858B94;dashed=0;" parent="1" vertex="1">
          <mxGeometry x="40" y="25.5" width="750" height="630" as="geometry" />
        </mxCell>
        <mxCell id="hhvihaq0zmXsQetp40y2-4" value="" style="sketch=0;outlineConnect=0;fontColor=#232F3E;gradientColor=none;fillColor=#232F3D;strokeColor=none;dashed=0;verticalLabelPosition=bottom;verticalAlign=top;align=center;html=1;fontSize=12;fontStyle=0;aspect=fixed;pointerEvents=1;shape=mxgraph.aws4.authenticated_user;" parent="1" vertex="1">
          <mxGeometry x="-60" y="140" width="78" height="78" as="geometry" />
        </mxCell>
        <mxCell id="hhvihaq0zmXsQetp40y2-5" value="" style="sketch=0;points=[[0,0,0],[0.25,0,0],[0.5,0,0],[0.75,0,0],[1,0,0],[0,1,0],[0.25,1,0],[0.5,1,0],[0.75,1,0],[1,1,0],[0,0.25,0],[0,0.5,0],[0,0.75,0],[1,0.25,0],[1,0.5,0],[1,0.75,0]];outlineConnect=0;fontColor=#232F3E;fillColor=#7AA116;strokeColor=#ffffff;dashed=0;verticalLabelPosition=bottom;verticalAlign=top;align=center;html=1;fontSize=12;fontStyle=0;aspect=fixed;shape=mxgraph.aws4.resourceIcon;resIcon=mxgraph.aws4.s3;" parent="1" vertex="1">
          <mxGeometry x="180" y="256" width="78" height="78" as="geometry" />
        </mxCell>
        <mxCell id="hhvihaq0zmXsQetp40y2-6" value="" style="sketch=0;points=[[0,0,0],[0.25,0,0],[0.5,0,0],[0.75,0,0],[1,0,0],[0,1,0],[0.25,1,0],[0.5,1,0],[0.75,1,0],[1,1,0],[0,0.25,0],[0,0.5,0],[0,0.75,0],[1,0.25,0],[1,0.5,0],[1,0.75,0]];outlineConnect=0;fontColor=#232F3E;fillColor=#01A88D;strokeColor=#ffffff;dashed=0;verticalLabelPosition=bottom;verticalAlign=top;align=center;html=1;fontSize=12;fontStyle=0;aspect=fixed;shape=mxgraph.aws4.resourceIcon;resIcon=mxgraph.aws4.textract;" parent="1" vertex="1">
          <mxGeometry x="530" y="388" width="78" height="78" as="geometry" />
        </mxCell>
        <mxCell id="hhvihaq0zmXsQetp40y2-7" value="" style="sketch=0;points=[[0,0,0],[0.25,0,0],[0.5,0,0],[0.75,0,0],[1,0,0],[0,1,0],[0.25,1,0],[0.5,1,0],[0.75,1,0],[1,1,0],[0,0.25,0],[0,0.5,0],[0,0.75,0],[1,0.25,0],[1,0.5,0],[1,0.75,0]];outlineConnect=0;fontColor=#232F3E;fillColor=#C925D1;strokeColor=#ffffff;dashed=0;verticalLabelPosition=bottom;verticalAlign=top;align=center;html=1;fontSize=12;fontStyle=0;aspect=fixed;shape=mxgraph.aws4.resourceIcon;resIcon=mxgraph.aws4.dynamodb;" parent="1" vertex="1">
          <mxGeometry x="230" y="540" width="78" height="78" as="geometry" />
        </mxCell>
        <mxCell id="hhvihaq0zmXsQetp40y2-34" style="edgeStyle=orthogonalEdgeStyle;rounded=0;orthogonalLoop=1;jettySize=auto;html=1;exitX=1;exitY=0.5;exitDx=0;exitDy=0;exitPerimeter=0;" parent="1" source="hhvihaq0zmXsQetp40y2-8" target="hhvihaq0zmXsQetp40y2-4" edge="1">
          <mxGeometry relative="1" as="geometry">
            <mxPoint x="70" y="193.5" as="targetPoint" />
            <mxPoint x="661.5" y="577.5" as="sourcePoint" />
            <Array as="points">
              <mxPoint x="610" y="578" />
              <mxPoint x="672" y="578" />
              <mxPoint x="672" y="194" />
            </Array>
          </mxGeometry>
        </mxCell>
        <mxCell id="hhvihaq0zmXsQetp40y2-8" value="" style="outlineConnect=0;dashed=0;verticalLabelPosition=bottom;verticalAlign=top;align=center;html=1;shape=mxgraph.aws3.ses;fillColor=#D9A741;gradientColor=none;" parent="1" vertex="1">
          <mxGeometry x="530" y="532.5" width="79.5" height="93" as="geometry" />
        </mxCell>
        <mxCell id="hhvihaq0zmXsQetp40y2-9" value="" style="sketch=0;points=[[0,0,0],[0.25,0,0],[0.5,0,0],[0.75,0,0],[1,0,0],[0,1,0],[0.25,1,0],[0.5,1,0],[0.75,1,0],[1,1,0],[0,0.25,0],[0,0.5,0],[0,0.75,0],[1,0.25,0],[1,0.5,0],[1,0.75,0]];outlineConnect=0;fontColor=#232F3E;fillColor=#ED7100;strokeColor=#ffffff;dashed=0;verticalLabelPosition=bottom;verticalAlign=top;align=center;html=1;fontSize=12;fontStyle=0;aspect=fixed;shape=mxgraph.aws4.resourceIcon;resIcon=mxgraph.aws4.lambda;" parent="1" vertex="1">
          <mxGeometry x="347" y="388" width="78" height="78" as="geometry" />
        </mxCell>
        <mxCell id="hhvihaq0zmXsQetp40y2-17" style="edgeStyle=orthogonalEdgeStyle;rounded=0;orthogonalLoop=1;jettySize=auto;html=1;" parent="1" edge="1">
          <mxGeometry relative="1" as="geometry">
            <mxPoint x="-21.5" y="278" as="targetPoint" />
            <mxPoint x="-21.5" y="248" as="sourcePoint" />
            <Array as="points">
              <mxPoint x="-21" y="252" />
              <mxPoint x="-21" y="252" />
            </Array>
          </mxGeometry>
        </mxCell>
        <mxCell id="hhvihaq0zmXsQetp40y2-10" value="User" style="text;html=1;align=center;verticalAlign=middle;whiteSpace=wrap;rounded=0;" parent="1" vertex="1">
          <mxGeometry x="-51" y="218" width="60" height="30" as="geometry" />
        </mxCell>
        <mxCell id="hhvihaq0zmXsQetp40y2-20" style="edgeStyle=orthogonalEdgeStyle;rounded=0;orthogonalLoop=1;jettySize=auto;html=1;" parent="1" source="hhvihaq0zmXsQetp40y2-12" target="hhvihaq0zmXsQetp40y2-5" edge="1">
          <mxGeometry relative="1" as="geometry" />
        </mxCell>
        <mxCell id="hhvihaq0zmXsQetp40y2-12" value="Uploads&amp;nbsp;" style="text;html=1;align=center;verticalAlign=middle;whiteSpace=wrap;rounded=0;" parent="1" vertex="1">
          <mxGeometry x="-51" y="280" width="60" height="30" as="geometry" />
        </mxCell>
        <mxCell id="hhvihaq0zmXsQetp40y2-22" style="edgeStyle=orthogonalEdgeStyle;rounded=0;orthogonalLoop=1;jettySize=auto;html=1;" parent="1" source="hhvihaq0zmXsQetp40y2-32" target="hhvihaq0zmXsQetp40y2-9" edge="1">
          <mxGeometry relative="1" as="geometry">
            <Array as="points">
              <mxPoint x="220" y="427" />
            </Array>
          </mxGeometry>
        </mxCell>
        <mxCell id="hhvihaq0zmXsQetp40y2-27" value="" style="edgeStyle=orthogonalEdgeStyle;html=1;endArrow=block;elbow=vertical;startArrow=none;endFill=1;strokeColor=#545B64;rounded=0;" parent="1" edge="1">
          <mxGeometry width="100" relative="1" as="geometry">
            <mxPoint x="425" y="410" as="sourcePoint" />
            <mxPoint x="525" y="410" as="targetPoint" />
            <Array as="points">
              <mxPoint x="475" y="410" />
              <mxPoint x="475" y="410" />
            </Array>
          </mxGeometry>
        </mxCell>
        <mxCell id="hhvihaq0zmXsQetp40y2-28" value="" style="edgeStyle=orthogonalEdgeStyle;html=1;endArrow=none;elbow=vertical;startArrow=block;startFill=1;strokeColor=#545B64;rounded=0;" parent="1" edge="1">
          <mxGeometry width="100" relative="1" as="geometry">
            <mxPoint x="430" y="434" as="sourcePoint" />
            <mxPoint x="530" y="434" as="targetPoint" />
            <Array as="points">
              <mxPoint x="480" y="434" />
              <mxPoint x="480" y="434" />
            </Array>
          </mxGeometry>
        </mxCell>
        <mxCell id="hhvihaq0zmXsQetp40y2-29" value="Data" style="text;html=1;align=center;verticalAlign=middle;whiteSpace=wrap;rounded=0;" parent="1" vertex="1">
          <mxGeometry x="460" y="410" width="60" height="30" as="geometry" />
        </mxCell>
        <mxCell id="hhvihaq0zmXsQetp40y2-30" value="Process" style="text;html=1;align=center;verticalAlign=middle;whiteSpace=wrap;rounded=0;" parent="1" vertex="1">
          <mxGeometry x="450" y="380" width="60" height="30" as="geometry" />
        </mxCell>
        <mxCell id="hhvihaq0zmXsQetp40y2-31" value="Trigger" style="text;html=1;align=center;verticalAlign=middle;whiteSpace=wrap;rounded=0;" parent="1" vertex="1">
          <mxGeometry x="230" y="400" width="60" height="30" as="geometry" />
        </mxCell>
        <mxCell id="hhvihaq0zmXsQetp40y2-32" value="Amazon S3" style="text;html=1;align=center;verticalAlign=middle;whiteSpace=wrap;rounded=0;" parent="1" vertex="1">
          <mxGeometry x="189" y="340" width="60" height="30" as="geometry" />
        </mxCell>
        <mxCell id="hhvihaq0zmXsQetp40y2-48" style="edgeStyle=orthogonalEdgeStyle;rounded=0;orthogonalLoop=1;jettySize=auto;html=1;" parent="1" source="hhvihaq0zmXsQetp40y2-33" target="hhvihaq0zmXsQetp40y2-8" edge="1">
          <mxGeometry relative="1" as="geometry">
            <Array as="points">
              <mxPoint x="470" y="488" />
              <mxPoint x="470" y="580" />
            </Array>
          </mxGeometry>
        </mxCell>
        <mxCell id="hhvihaq0zmXsQetp40y2-33" value="AWS Lambda" style="text;html=1;align=center;verticalAlign=middle;whiteSpace=wrap;rounded=0;" parent="1" vertex="1">
          <mxGeometry x="356" y="473" width="60" height="30" as="geometry" />
        </mxCell>
        <mxCell id="hhvihaq0zmXsQetp40y2-36" value="1" style="ellipse;whiteSpace=wrap;html=1;aspect=fixed;rotation=0;gradientColor=#223548;strokeColor=none;gradientDirection=east;fillColor=#5b738b;rounded=0;pointerEvents=0;fontFamily=Helvetica;fontSize=16;fontColor=#FFFFFF;spacingTop=4;spacingBottom=4;spacingLeft=4;spacingRight=4;points=[];fontStyle=1" parent="1" vertex="1">
          <mxGeometry x="-12" y="237" width="30" height="30" as="geometry" />
        </mxCell>
        <mxCell id="hhvihaq0zmXsQetp40y2-37" value="2" style="ellipse;whiteSpace=wrap;html=1;aspect=fixed;rotation=0;gradientColor=#223548;strokeColor=none;gradientDirection=east;fillColor=#5b738b;rounded=0;pointerEvents=0;fontFamily=Helvetica;fontSize=16;fontColor=#FFFFFF;spacingTop=4;spacingBottom=4;spacingLeft=4;spacingRight=4;points=[];fontStyle=1" parent="1" vertex="1">
          <mxGeometry x="130" y="260" width="30" height="30" as="geometry" />
        </mxCell>
        <mxCell id="hhvihaq0zmXsQetp40y2-39" value="3" style="ellipse;whiteSpace=wrap;html=1;aspect=fixed;rotation=0;gradientColor=#223548;strokeColor=none;gradientDirection=east;fillColor=#5b738b;rounded=0;pointerEvents=0;fontFamily=Helvetica;fontSize=16;fontColor=#FFFFFF;spacingTop=4;spacingBottom=4;spacingLeft=4;spacingRight=4;points=[];fontStyle=1" parent="1" vertex="1">
          <mxGeometry x="310" y="388" width="30" height="30" as="geometry" />
        </mxCell>
        <mxCell id="hhvihaq0zmXsQetp40y2-40" value="4" style="ellipse;whiteSpace=wrap;html=1;aspect=fixed;rotation=0;gradientColor=#223548;strokeColor=none;gradientDirection=east;fillColor=#5b738b;rounded=0;pointerEvents=0;fontFamily=Helvetica;fontSize=16;fontColor=#FFFFFF;spacingTop=4;spacingBottom=4;spacingLeft=4;spacingRight=4;points=[];fontStyle=1" parent="1" vertex="1">
          <mxGeometry x="540" y="350" width="30" height="30" as="geometry" />
        </mxCell>
        <mxCell id="hhvihaq0zmXsQetp40y2-41" value="5" style="ellipse;whiteSpace=wrap;html=1;aspect=fixed;rotation=0;gradientColor=#223548;strokeColor=none;gradientDirection=east;fillColor=#5b738b;rounded=0;pointerEvents=0;fontFamily=Helvetica;fontSize=16;fontColor=#FFFFFF;spacingTop=4;spacingBottom=4;spacingLeft=4;spacingRight=4;points=[];fontStyle=1" parent="1" vertex="1">
          <mxGeometry x="230" y="503" width="30" height="30" as="geometry" />
        </mxCell>
        <mxCell id="hhvihaq0zmXsQetp40y2-42" value="6" style="ellipse;whiteSpace=wrap;html=1;aspect=fixed;rotation=0;gradientColor=#223548;strokeColor=none;gradientDirection=east;fillColor=#5b738b;rounded=0;pointerEvents=0;fontFamily=Helvetica;fontSize=16;fontColor=#FFFFFF;spacingTop=4;spacingBottom=4;spacingLeft=4;spacingRight=4;points=[];fontStyle=1" parent="1" vertex="1">
          <mxGeometry x="640" y="547.5" width="30" height="30" as="geometry" />
        </mxCell>
        <mxCell id="hhvihaq0zmXsQetp40y2-43" style="edgeStyle=orthogonalEdgeStyle;rounded=0;orthogonalLoop=1;jettySize=auto;html=1;entryX=0.5;entryY=0;entryDx=0;entryDy=0;entryPerimeter=0;" parent="1" edge="1">
          <mxGeometry relative="1" as="geometry">
            <mxPoint x="354" y="488.7" as="sourcePoint" />
            <mxPoint x="267" y="540.7" as="targetPoint" />
          </mxGeometry>
        </mxCell>
        <mxCell id="hhvihaq0zmXsQetp40y2-44" value="IAM" style="text;html=1;align=center;verticalAlign=middle;whiteSpace=wrap;rounded=0;" parent="1" vertex="1">
          <mxGeometry x="405.58" y="334" width="60" height="30" as="geometry" />
        </mxCell>
        <mxCell id="hhvihaq0zmXsQetp40y2-46" value="Amazon SES" style="text;html=1;align=center;verticalAlign=middle;whiteSpace=wrap;rounded=0;" parent="1" vertex="1">
          <mxGeometry x="540" y="625.5" width="60" height="30" as="geometry" />
        </mxCell>
        <mxCell id="hhvihaq0zmXsQetp40y2-47" value="DynamoDB" style="text;html=1;align=center;verticalAlign=middle;whiteSpace=wrap;rounded=0;" parent="1" vertex="1">
          <mxGeometry x="239" y="610" width="60" height="30" as="geometry" />
        </mxCell>
        <mxCell id="hhvihaq0zmXsQetp40y2-49" value="Notify" style="text;html=1;align=center;verticalAlign=middle;whiteSpace=wrap;rounded=0;" parent="1" vertex="1">
          <mxGeometry x="460" y="550" width="60" height="30" as="geometry" />
        </mxCell>
        <mxCell id="hhvihaq0zmXsQetp40y2-50" value="Store" style="text;html=1;align=center;verticalAlign=middle;whiteSpace=wrap;rounded=0;" parent="1" vertex="1">
          <mxGeometry x="258" y="460" width="60" height="30" as="geometry" />
        </mxCell>
        <mxCell id="hhvihaq0zmXsQetp40y2-51" value="Amazon Textract" style="text;html=1;align=center;verticalAlign=middle;whiteSpace=wrap;rounded=0;" parent="1" vertex="1">
          <mxGeometry x="539" y="466" width="60" height="30" as="geometry" />
        </mxCell>
        <mxCell id="hhvihaq0zmXsQetp40y2-52" value="" style="sketch=0;outlineConnect=0;fontColor=#232F3E;gradientColor=none;fillColor=#DD344C;strokeColor=none;dashed=0;verticalLabelPosition=bottom;verticalAlign=top;align=center;html=1;fontSize=12;fontStyle=0;aspect=fixed;pointerEvents=1;shape=mxgraph.aws4.permissions;" parent="1" vertex="1">
          <mxGeometry x="258" y="310" width="27.03" height="34" as="geometry" />
        </mxCell>
        <mxCell id="hhvihaq0zmXsQetp40y2-58" value="" style="sketch=0;outlineConnect=0;fontColor=#232F3E;gradientColor=none;fillColor=#DD344C;strokeColor=none;dashed=0;verticalLabelPosition=bottom;verticalAlign=top;align=center;html=1;fontSize=12;fontStyle=0;aspect=fixed;pointerEvents=1;shape=mxgraph.aws4.role;" parent="1" vertex="1">
          <mxGeometry x="405.58" y="357.3" width="54.42" height="30.7" as="geometry" />
        </mxCell>
        <mxCell id="hhvihaq0zmXsQetp40y2-62" value="" style="sketch=0;outlineConnect=0;fontColor=#232F3E;gradientColor=none;fillColor=#DD344C;strokeColor=none;dashed=0;verticalLabelPosition=bottom;verticalAlign=top;align=center;html=1;fontSize=12;fontStyle=0;aspect=fixed;pointerEvents=1;shape=mxgraph.aws4.role;" parent="1" vertex="1">
          <mxGeometry x="302.84" y="600.5" width="44.32" height="25" as="geometry" />
        </mxCell>
        <mxCell id="hhvihaq0zmXsQetp40y2-63" value="" style="sketch=0;outlineConnect=0;fontColor=#232F3E;gradientColor=none;fillColor=#DD344C;strokeColor=none;dashed=0;verticalLabelPosition=bottom;verticalAlign=top;align=center;html=1;fontSize=12;fontStyle=0;aspect=fixed;pointerEvents=1;shape=mxgraph.aws4.role;" parent="1" vertex="1">
          <mxGeometry x="602.11" y="585.5" width="43.43" height="24.5" as="geometry" />
        </mxCell>
        <mxCell id="hhvihaq0zmXsQetp40y2-64" value="" style="sketch=0;outlineConnect=0;fontColor=#232F3E;gradientColor=none;fillColor=#DD344C;strokeColor=none;dashed=0;verticalLabelPosition=bottom;verticalAlign=top;align=center;html=1;fontSize=12;fontStyle=0;aspect=fixed;pointerEvents=1;shape=mxgraph.aws4.role;" parent="1" vertex="1">
          <mxGeometry x="239" y="228" width="56.73" height="32" as="geometry" />
        </mxCell>
        <mxCell id="hhvihaq0zmXsQetp40y2-65" value="" style="sketch=0;outlineConnect=0;fontColor=#232F3E;gradientColor=none;fillColor=#DD344C;strokeColor=none;dashed=0;verticalLabelPosition=bottom;verticalAlign=top;align=center;html=1;fontSize=12;fontStyle=0;aspect=fixed;pointerEvents=1;shape=mxgraph.aws4.role;" parent="1" vertex="1">
          <mxGeometry x="599" y="452.7" width="49.64" height="28" as="geometry" />
        </mxCell>
        <mxCell id="ZlFxHgFdnIFMKlrB6PsA-22" value="" style="whiteSpace=wrap;html=1;shape=mxgraph.basic.document" vertex="1" parent="1">
          <mxGeometry x="810" y="47.5" width="320" height="538" as="geometry" />
        </mxCell>
        <mxCell id="ZlFxHgFdnIFMKlrB6PsA-27" value="" style="edgeStyle=orthogonalEdgeStyle;rounded=0;orthogonalLoop=1;jettySize=auto;html=1;" edge="1" parent="1" source="ZlFxHgFdnIFMKlrB6PsA-23" target="ZlFxHgFdnIFMKlrB6PsA-26">
          <mxGeometry relative="1" as="geometry" />
        </mxCell>
        <mxCell id="ZlFxHgFdnIFMKlrB6PsA-23" value="1" style="ellipse;whiteSpace=wrap;html=1;aspect=fixed;rotation=0;gradientColor=#0057D2;strokeColor=none;gradientDirection=east;fillColor=#2395FF;rounded=0;pointerEvents=0;fontFamily=Helvetica;fontSize=16;fontColor=#FFFFFF;spacingTop=4;spacingBottom=4;spacingLeft=4;spacingRight=4;points=[];fontStyle=1" vertex="1" parent="1">
          <mxGeometry x="820" y="164" width="30" height="30" as="geometry" />
        </mxCell>
        <mxCell id="ZlFxHgFdnIFMKlrB6PsA-29" value="" style="edgeStyle=orthogonalEdgeStyle;rounded=0;orthogonalLoop=1;jettySize=auto;html=1;" edge="1" parent="1" source="ZlFxHgFdnIFMKlrB6PsA-24" target="ZlFxHgFdnIFMKlrB6PsA-28">
          <mxGeometry relative="1" as="geometry" />
        </mxCell>
        <mxCell id="ZlFxHgFdnIFMKlrB6PsA-24" value="2" style="ellipse;whiteSpace=wrap;html=1;aspect=fixed;rotation=0;gradientColor=#0057D2;strokeColor=none;gradientDirection=east;fillColor=#2395FF;rounded=0;pointerEvents=0;fontFamily=Helvetica;fontSize=16;fontColor=#FFFFFF;spacingTop=4;spacingBottom=4;spacingLeft=4;spacingRight=4;points=[];fontStyle=1" vertex="1" parent="1">
          <mxGeometry x="820" y="237" width="30" height="30" as="geometry" />
        </mxCell>
        <mxCell id="ZlFxHgFdnIFMKlrB6PsA-31" value="" style="edgeStyle=orthogonalEdgeStyle;rounded=0;orthogonalLoop=1;jettySize=auto;html=1;" edge="1" parent="1" source="ZlFxHgFdnIFMKlrB6PsA-25" target="ZlFxHgFdnIFMKlrB6PsA-30">
          <mxGeometry relative="1" as="geometry" />
        </mxCell>
        <mxCell id="ZlFxHgFdnIFMKlrB6PsA-25" value="3" style="ellipse;whiteSpace=wrap;html=1;aspect=fixed;rotation=0;gradientColor=#0057D2;strokeColor=none;gradientDirection=east;fillColor=#2395FF;rounded=0;pointerEvents=0;fontFamily=Helvetica;fontSize=16;fontColor=#FFFFFF;spacingTop=4;spacingBottom=4;spacingLeft=4;spacingRight=4;points=[];fontStyle=1" vertex="1" parent="1">
          <mxGeometry x="820" y="305" width="30" height="30" as="geometry" />
        </mxCell>
        <mxCell id="ZlFxHgFdnIFMKlrB6PsA-26" value="&lt;table style=&quot;color: rgb(255, 255, 255); font-size: 12px; font-weight: 400;&quot;&gt;&lt;tbody&gt;&lt;tr&gt;&lt;td&gt;&lt;b&gt;User uploads file via web interface&lt;/b&gt;&lt;/td&gt;&lt;/tr&gt;&lt;/tbody&gt;&lt;/table&gt;" style="whiteSpace=wrap;html=1;fontSize=16;fillColor=#2395FF;strokeColor=none;fontColor=#FFFFFF;gradientColor=#0057D2;gradientDirection=east;rounded=0;pointerEvents=0;spacingTop=4;spacingBottom=4;spacingLeft=4;spacingRight=4;fontStyle=1;" vertex="1" parent="1">
          <mxGeometry x="865" y="153.5" width="225" height="51" as="geometry" />
        </mxCell>
        <mxCell id="ZlFxHgFdnIFMKlrB6PsA-28" value="&lt;table style=&quot;color: rgb(255, 255, 255); font-size: 12px;&quot;&gt;&lt;tbody&gt;&lt;tr&gt;&lt;td&gt;S3 bucket stores file and triggers Lambda&lt;/td&gt;&lt;/tr&gt;&lt;/tbody&gt;&lt;/table&gt;" style="whiteSpace=wrap;html=1;fontSize=16;fillColor=#2395FF;strokeColor=none;fontColor=#FFFFFF;gradientColor=#0057D2;gradientDirection=east;rounded=0;pointerEvents=0;spacingTop=4;spacingBottom=4;spacingLeft=4;spacingRight=4;fontStyle=1;" vertex="1" parent="1">
          <mxGeometry x="865" y="232" width="230" height="40" as="geometry" />
        </mxCell>
        <mxCell id="ZlFxHgFdnIFMKlrB6PsA-30" value="&lt;table style=&quot;color: rgb(255, 255, 255); font-size: 12px;&quot;&gt;&lt;tbody&gt;&lt;tr&gt;&lt;td&gt;Lambda processes file with Textract&lt;/td&gt;&lt;/tr&gt;&lt;/tbody&gt;&lt;/table&gt;" style="whiteSpace=wrap;html=1;fontSize=16;fillColor=#2395FF;strokeColor=none;fontColor=#FFFFFF;gradientColor=#0057D2;gradientDirection=east;rounded=0;pointerEvents=0;spacingTop=4;spacingBottom=4;spacingLeft=4;spacingRight=4;fontStyle=1;" vertex="1" parent="1">
          <mxGeometry x="865" y="300" width="230" height="40" as="geometry" />
        </mxCell>
        <mxCell id="ZlFxHgFdnIFMKlrB6PsA-34" value="" style="edgeStyle=orthogonalEdgeStyle;rounded=0;orthogonalLoop=1;jettySize=auto;html=1;" edge="1" parent="1" source="ZlFxHgFdnIFMKlrB6PsA-32" target="ZlFxHgFdnIFMKlrB6PsA-33">
          <mxGeometry relative="1" as="geometry" />
        </mxCell>
        <mxCell id="ZlFxHgFdnIFMKlrB6PsA-32" value="4" style="ellipse;whiteSpace=wrap;html=1;aspect=fixed;rotation=0;gradientColor=#0057D2;strokeColor=none;gradientDirection=east;fillColor=#2395FF;rounded=0;pointerEvents=0;fontFamily=Helvetica;fontSize=16;fontColor=#FFFFFF;spacingTop=4;spacingBottom=4;spacingLeft=4;spacingRight=4;points=[];fontStyle=1" vertex="1" parent="1">
          <mxGeometry x="820" y="370" width="30" height="30" as="geometry" />
        </mxCell>
        <mxCell id="ZlFxHgFdnIFMKlrB6PsA-33" value="&lt;font style=&quot;font-size: 12px;&quot;&gt;Textract extracts text data&lt;/font&gt;" style="whiteSpace=wrap;html=1;fontSize=16;fillColor=#2395FF;strokeColor=none;fontColor=#FFFFFF;gradientColor=#0057D2;gradientDirection=east;rounded=0;pointerEvents=0;spacingTop=4;spacingBottom=4;spacingLeft=4;spacingRight=4;fontStyle=1;" vertex="1" parent="1">
          <mxGeometry x="865" y="365" width="220" height="40" as="geometry" />
        </mxCell>
        <mxCell id="ZlFxHgFdnIFMKlrB6PsA-41" value="" style="edgeStyle=orthogonalEdgeStyle;rounded=0;orthogonalLoop=1;jettySize=auto;html=1;" edge="1" parent="1" source="ZlFxHgFdnIFMKlrB6PsA-36" target="ZlFxHgFdnIFMKlrB6PsA-40">
          <mxGeometry relative="1" as="geometry" />
        </mxCell>
        <mxCell id="ZlFxHgFdnIFMKlrB6PsA-36" value="5" style="ellipse;whiteSpace=wrap;html=1;aspect=fixed;rotation=0;gradientColor=#0057D2;strokeColor=none;gradientDirection=east;fillColor=#2395FF;rounded=0;pointerEvents=0;fontFamily=Helvetica;fontSize=16;fontColor=#FFFFFF;spacingTop=4;spacingBottom=4;spacingLeft=4;spacingRight=4;points=[];fontStyle=1" vertex="1" parent="1">
          <mxGeometry x="820" y="435" width="30" height="30" as="geometry" />
        </mxCell>
        <mxCell id="ZlFxHgFdnIFMKlrB6PsA-44" value="" style="edgeStyle=orthogonalEdgeStyle;rounded=0;orthogonalLoop=1;jettySize=auto;html=1;" edge="1" parent="1" source="ZlFxHgFdnIFMKlrB6PsA-37" target="ZlFxHgFdnIFMKlrB6PsA-43">
          <mxGeometry relative="1" as="geometry" />
        </mxCell>
        <mxCell id="ZlFxHgFdnIFMKlrB6PsA-37" value="6" style="ellipse;whiteSpace=wrap;html=1;aspect=fixed;rotation=0;gradientColor=#0057D2;strokeColor=none;gradientDirection=east;fillColor=#2395FF;rounded=0;pointerEvents=0;fontFamily=Helvetica;fontSize=16;fontColor=#FFFFFF;spacingTop=4;spacingBottom=4;spacingLeft=4;spacingRight=4;points=[];fontStyle=1" vertex="1" parent="1">
          <mxGeometry x="820" y="495" width="30" height="30" as="geometry" />
        </mxCell>
        <mxCell id="ZlFxHgFdnIFMKlrB6PsA-40" value="&lt;font style=&quot;font-size: 12px;&quot;&gt;DynamoDB stores strutured results&lt;/font&gt;" style="whiteSpace=wrap;html=1;fontSize=16;fillColor=#2395FF;strokeColor=none;fontColor=#FFFFFF;gradientColor=#0057D2;gradientDirection=east;rounded=0;pointerEvents=0;spacingTop=4;spacingBottom=4;spacingLeft=4;spacingRight=4;fontStyle=1;" vertex="1" parent="1">
          <mxGeometry x="870" y="430" width="220" height="40" as="geometry" />
        </mxCell>
        <mxCell id="ZlFxHgFdnIFMKlrB6PsA-43" value="&lt;font style=&quot;font-size: 12px;&quot;&gt;&lt;font style=&quot;&quot;&gt;SES&lt;/font&gt;&amp;nbsp;sends email notification&lt;/font&gt;" style="whiteSpace=wrap;html=1;fontSize=16;fillColor=#2395FF;strokeColor=none;fontColor=#FFFFFF;gradientColor=#0057D2;gradientDirection=east;rounded=0;pointerEvents=0;spacingTop=4;spacingBottom=4;spacingLeft=4;spacingRight=4;fontStyle=1;" vertex="1" parent="1">
          <mxGeometry x="870" y="490" width="220" height="40" as="geometry" />
        </mxCell>
        <mxCell id="ZlFxHgFdnIFMKlrB6PsA-45" value="Text" style="text;html=1;align=center;verticalAlign=middle;whiteSpace=wrap;rounded=0;" vertex="1" parent="1">
          <mxGeometry x="670" y="230" width="60" height="30" as="geometry" />
        </mxCell>
        <mxCell id="ZlFxHgFdnIFMKlrB6PsA-47" value="&lt;b&gt;STEPS AND DESCRIPTION OF THE ARCHITECTURE&lt;/b&gt;" style="text;html=1;align=center;verticalAlign=middle;whiteSpace=wrap;rounded=0;" vertex="1" parent="1">
          <mxGeometry x="860" y="80" width="210" height="70" as="geometry" />
        </mxCell>
      </root>
    </mxGraphModel>
  </diagram>
</mxfile>
